<?xml version="1.0" encoding="UTF-8" standalone="no"?>
<svg
   xmlns:dc="http://purl.org/dc/elements/1.1/"
   xmlns:cc="http://creativecommons.org/ns#"
   xmlns:rdf="http://www.w3.org/1999/02/22-rdf-syntax-ns#"
   xmlns:svg="http://www.w3.org/2000/svg"
   xmlns="http://www.w3.org/2000/svg"
   xmlns:sodipodi="http://sodipodi.sourceforge.net/DTD/sodipodi-0.dtd"
   xmlns:inkscape="http://www.inkscape.org/namespaces/inkscape"
   width="210mm"
   height="297mm"
   viewBox="0 0 210 297"
   version="1.1"
   id="svg633"
   inkscape:version="1.0.2 (e86c8708, 2021-01-15)"
   sodipodi:docname="spy.svg">
  <defs
     id="defs627" />
  <sodipodi:namedview
     id="base"
     pagecolor="#ffffff"
     bordercolor="#666666"
     borderopacity="1.0"
     inkscape:pageopacity="0.0"
     inkscape:pageshadow="2"
     inkscape:zoom="0.35"
     inkscape:cx="400"
     inkscape:cy="560"
     inkscape:document-units="mm"
     inkscape:current-layer="layer1"
     inkscape:document-rotation="0"
     showgrid="false"
     inkscape:window-width="1252"
     inkscape:window-height="943"
     inkscape:window-x="897"
     inkscape:window-y="156"
     inkscape:window-maximized="0" />
  <metadata
     id="metadata630">
    <rdf:RDF>
      <cc:Work
         rdf:about="">
        <dc:format>image/svg+xml</dc:format>
        <dc:type
           rdf:resource="http://purl.org/dc/dcmitype/StillImage" />
        <dc:title></dc:title>
      </cc:Work>
    </rdf:RDF>
  </metadata>
  <g
     inkscape:label="Layer 1"
     inkscape:groupmode="layer"
     id="layer1">
    <g
       id="g138"
       transform="matrix(0.48372258,0,0,0.48810443,-231.83883,34.047337)">
      <g
         id="g22">
        <path
           fill="#30363b"
           d="m 705.631,468.528 c 0.058,-1.627 -8.492,-3.123 -18.714,-3.48 -10.222,-0.355 -18.288,1.83 -18.345,3.455 -0.057,1.629 8.183,3.238 18.404,3.594 10.222,0.357 18.598,-1.94 18.655,-3.569 z"
           id="path10" />
        <path
           fill="#292f33"
           d="m 702.444,466.905 c -0.063,1.824 -0.075,2.123 -0.149,4.279 -0.053,1.48 -2.692,3.877 -5.221,6.598 -0.361,0.389 -1.16,1.121 -2.184,2.617 -2.172,3.178 -4.826,7.059 -8.558,10.857 -4.72,4.805 -11.396,11.551 -21.659,10.996 -5.246,-0.281 -8.754,-5.539 -8.051,-7.27 2.223,-5.482 3.809,-8.604 5.447,-11.402 4.279,-7.303 7.062,-11.098 10.838,-15.412 6.162,-7.043 10.031,-7.934 17.369,-5.85 4.244,1.204 8.558,1.199 12.168,4.587 z"
           id="path12" />
        <path
           fill="#343b40"
           d="m 699.515,467.302 c -2.87,7.271 -6.902,13.951 -11.815,19.619 -0.843,0.969 -1.709,1.908 -2.604,2.818 -4.891,4.965 -8.736,8.545 -14.314,9.928 -2.354,0.586 -5.01,0.777 -8.176,0.525 -3.439,-0.117 -6.021,-3.646 -6.059,-5.822 -0.074,-4.23 2.219,-8.781 4.291,-12.316 0.066,-0.105 0.125,-0.223 0.199,-0.334 2.693,-4.586 6.022,-7.781 9.24,-11.008 1.25,-1.25 2.479,-2.508 3.654,-3.848 4.395,-5.023 9.145,-7.768 15.115,-6.066 4.239,1.199 6.858,3.115 10.469,6.504 z"
           id="path14" />
        <path
           fill="#2f353b"
           d="m 699.515,467.302 c -2.87,7.271 -6.902,13.951 -11.815,19.619 -0.843,0.969 -1.709,1.908 -2.604,2.818 -4.891,4.965 -8.736,8.545 -14.314,9.928 1.279,-1.332 7.248,-4.742 9.676,-9.643 1.614,-3.26 3.093,-7.912 2.049,-11.389 -0.843,-2.805 -3.232,-4.936 -5.889,-6.156 -1.997,-0.918 -4.157,-1.398 -6.34,-1.768 1.25,-1.25 2.479,-2.508 3.654,-3.848 4.395,-5.023 9.145,-7.768 15.115,-6.066 4.238,1.2 6.857,3.116 10.468,6.505 z"
           id="path16" />
        <path
           fill="#414a50"
           d="m 705.631,468.528 c -21.086,-4.889 -35.877,-1.766 -37.059,-0.025 l 0.693,-61.205 38.457,1.344 z"
           id="path18" />
        <path
           fill="#3a4247"
           d="m 705.631,468.528 c -7.338,-1.617 -14.624,-2.588 -21.84,-2.709 l 2.023,-57.943 21.908,0.766 z"
           id="path20" />
      </g>
      <g
         id="g36">
        <path
           fill="#30363b"
           d="m 716.086,468.528 c -0.057,-1.627 8.494,-3.123 18.715,-3.48 10.223,-0.355 18.289,1.83 18.346,3.455 0.057,1.629 -8.184,3.238 -18.406,3.594 -10.221,0.357 -18.598,-1.94 -18.655,-3.569 z"
           id="path24" />
        <path
           fill="#292f33"
           d="m 719.273,466.905 c 0.064,1.824 0.074,2.123 0.15,4.279 0.051,1.48 2.691,3.877 5.221,6.598 0.359,0.389 1.16,1.121 2.184,2.617 2.17,3.178 4.826,7.059 8.557,10.857 4.719,4.805 11.396,11.551 21.658,10.996 5.248,-0.281 8.754,-5.539 8.053,-7.27 -2.223,-5.482 -3.811,-8.604 -5.447,-11.402 -4.279,-7.303 -7.062,-11.098 -10.838,-15.412 -6.162,-7.043 -10.031,-7.934 -17.369,-5.85 -4.243,1.204 -8.557,1.199 -12.169,4.587 z"
           id="path26" />
        <path
           fill="#343b40"
           d="m 722.203,467.302 c 2.871,7.271 6.902,13.951 11.814,19.619 0.844,0.969 1.709,1.908 2.605,2.818 4.889,4.965 8.736,8.545 14.314,9.928 2.352,0.586 5.008,0.777 8.176,0.525 3.439,-0.117 6.021,-3.646 6.059,-5.822 0.072,-4.23 -2.221,-8.781 -4.291,-12.316 -0.066,-0.105 -0.127,-0.223 -0.201,-0.334 -2.691,-4.586 -6.02,-7.781 -9.238,-11.008 -1.252,-1.25 -2.479,-2.508 -3.656,-3.848 -4.393,-5.023 -9.143,-7.768 -15.113,-6.066 -4.24,1.199 -6.86,3.115 -10.469,6.504 z"
           id="path28" />
        <path
           fill="#2f353b"
           d="m 722.203,467.302 c 2.871,7.271 10.133,19.764 16.832,24.84 -1.279,-1.332 -0.867,-10.029 0.176,-13.506 0.844,-2.805 3.234,-4.936 5.889,-6.156 1.998,-0.918 4.158,-1.398 6.342,-1.768 -1.252,-1.25 -2.479,-2.508 -3.656,-3.848 -4.393,-5.023 -9.143,-7.768 -15.113,-6.066 -4.241,1.199 -6.861,3.115 -10.47,6.504 z"
           id="path30" />
        <path
           fill="#3a4247"
           d="m 716.086,468.528 c 21.086,-4.889 35.879,-1.766 37.061,-0.025 l -0.695,-61.205 -38.455,1.344 z"
           id="path32" />
        <path
           fill="#414a50"
           d="m 716.086,468.528 c 7.34,-1.617 14.625,-2.588 21.842,-2.709 l -2.023,-57.943 -21.908,0.766 z"
           id="path34" />
      </g>
      <g
         id="g42">
        <rect
           x="696.69501"
           y="103.782"
           fill="#f9dfa9"
           width="28.35"
           height="36.18"
           id="rect38" />
        <path
           fill="#eace95"
           d="m 725.045,103.782 v 16.556 c -11.141,-1.889 -21.023,-7.463 -28.35,-15.421 v -1.135 z"
           id="path40" />
      </g>
      <g
         id="g58">
        <g
           id="g52">
          <path
             fill="#ffe8b9"
             d="m 743.002,62.747 c 0,20.924 -14.395,47.047 -32.143,47.047 -17.75,0 -32.144,-26.124 -32.144,-47.047 0,-20.923 14.394,-37.889 32.144,-37.889 17.748,-0.001 32.143,16.965 32.143,37.889 z"
             id="path44" />
          <path
             fill="#f9dfa9"
             d="m 743.002,62.747 c 0,20.924 -14.395,47.047 -32.143,47.047 V 24.857 c 17.748,0 32.143,16.966 32.143,37.89 z"
             id="path46" />
          <path
             fill="#ffe8b9"
             d="m 688.473,69.091 c 0,6.413 -3.377,11.612 -7.542,11.612 -4.165,0 -7.322,-7.956 -7.322,-14.369 0,-6.413 3.157,-8.855 7.322,-8.855 4.165,0 7.542,5.199 7.542,11.612 z"
             id="path48" />
          <path
             fill="#f9dfa9"
             d="m 733.246,69.091 c 0,6.413 3.375,11.612 7.541,11.612 4.166,0 7.322,-7.956 7.322,-14.369 0,-6.413 -3.156,-8.855 -7.322,-8.855 -4.166,0 -7.541,5.199 -7.541,11.612 z"
             id="path50" />
        </g>
        <path
           fill="#292f33"
           d="m 736.383,59.462 c -0.188,-1.084 -0.875,-2.215 -1.152,-3.284 -8.289,0.545 -16.5,1.928 -24.467,4.041 -7.967,-2.113 -16.178,-3.496 -24.467,-4.041 -0.277,1.069 -0.964,2.2 -1.151,3.284 -0.9,5.203 1.761,12.521 10.112,13.863 7.484,1.204 10.594,-0.766 11.576,-1.719 0.945,-0.918 2.594,-3.912 3.93,-4.281 1.336,0.37 2.984,3.363 3.93,4.281 0.982,0.953 4.092,2.922 11.578,1.719 8.349,-1.342 11.009,-8.659 10.111,-13.863 z"
           id="path54" />
        <path
           fill="#574a48"
           d="m 710.873,17.974 c 9.426,0 27.496,6.368 32.158,15.682 5.107,10.206 2.793,25.629 2.793,25.629 0,0 -1.523,-1.415 -3.078,-1.606 -1.557,-0.191 -2.039,12.071 -2.039,12.071 H 738.9 c 0,0 -0.719,-6.105 -2.334,-10.415 0,0 -2.482,-4.49 -0.807,-7.482 1.675,-2.992 -1.676,-14.006 -5.148,-15.682 -3.471,-1.676 -5.746,6.584 -18.676,9.457 -12.928,2.874 -25.139,2.514 -25.139,2.514 0,0 -1.316,3.831 -0.719,4.549 0.6,0.718 -0.897,6.644 -0.897,6.644 -1.616,4.31 -2.335,10.415 -2.335,10.415 h -1.805 c 0,0 -0.484,-12.262 -2.039,-12.071 -1.555,0.191 -3.08,1.606 -3.08,1.606 0,0 -2.313,-15.423 2.794,-25.629 4.662,-9.315 22.733,-15.682 32.158,-15.682 z"
           id="path56" />
      </g>
      <g
         id="g68">
        <path
           fill="#56626b"
           d="m 746.359,43.864 h -70.977 c 0,-0.747 0.029,-1.561 0.088,-2.426 0.541,-8.315 3.47,-21.433 5.57,-29.526 2.072,-7.968 9.403,-11.053 17.046,-8.604 8.7,2.789 9.151,8.353 12.769,8.16 3.301,-0.185 6.674,-6.296 14.189,-8.456 6.586,-1.901 13.717,2.042 15.633,9.662 3.078,12.259 5.385,26.108 5.652,30.473 0.023,0.28 0.03,0.518 0.03,0.717 z"
           id="path60" />
        <path
           fill="#56626b"
           d="m 764.973,48.532 c -7.717,4.498 -25.656,12.68 -54.117,12.68 -30.006,0 -49.692,-9.817 -57.305,-14.441 -1.258,-0.769 -0.844,-2.686 0.621,-2.87 12.059,-1.48 16.469,-2.161 21.299,-2.464 6,-0.377 12.65,-0.163 35.385,-0.155 h 1.287 c 10.713,0 23.453,0.895 34.188,1.864 7.338,0.673 13.738,1.383 17.918,1.872 1.804,0.215 2.292,2.597 0.724,3.514 z"
           id="path62" />
        <path
           fill="#4e5a61"
           d="m 764.973,48.532 c -7.717,4.498 -25.656,12.68 -54.117,12.68 V 11.468 c 3.301,-0.185 6.674,-6.296 14.189,-8.456 6.586,-1.901 13.717,2.042 15.633,9.662 3.078,12.259 5.385,26.108 5.652,30.473 7.338,0.673 13.738,1.383 17.918,1.872 1.805,0.214 2.293,2.596 0.725,3.513 z"
           id="path64" />
        <path
           fill="#414a50"
           d="m 744.432,30.144 c 0,7.563 -67.436,7.563 -67.436,0 l -2.088,12.435 c 0,9.818 72.133,11.101 72.133,1.283 z"
           id="path66" />
      </g>
      <g
         id="g124">
        <path
           fill="#546169"
           d="m 656.14,279.729 c 1.065,-8.715 2.257,-16.926 3.581,-24.562 0,0 -4.055,-50.284 -5.674,-88.539 -0.615,-14.574 -1.422,-30.317 -2.479,-35.133 12.029,-4.935 44.75,-11.63 44.75,-11.63 0.134,7.746 6.955,11.615 14.561,11.615 h 0.072 c 7.576,-0.022 13.977,-3.892 14.102,-11.615 0,0 1.244,0.229 3.307,0.673 8.574,1.827 32.404,6.607 42.465,10.402 -1.131,5.245 -2.773,20.818 -3.439,35.688 -1.709,38.145 -5.201,88.539 -5.201,88.539 6.193,28.232 9.004,70.373 10.875,159.305 H 649.141 c 0.229,-44.434 1.961,-86.758 5.601,-122.201 0.436,-4.286 0.903,-8.471 1.398,-12.542 z"
           id="path70" />
        <path
           fill="#4e5a61"
           d="m 773.059,414.472 h -77.191 l -0.021,-155.33 4.32,-62.026 c 17.281,-26.167 26.959,-54.147 28.193,-76.578 8.574,1.827 34.535,7.169 42.465,10.402 -1.154,5.408 -2.773,20.818 -3.439,35.688 -1.117,24.932 -2.996,55.101 -4.166,73.004 l -0.014,0.215 c -0.607,9.365 -1.021,15.32 -1.021,15.32 6.192,28.232 9.003,70.373 10.874,159.305 z"
           id="path72" />
        <g
           id="g78">
          <path
             fill="#5a6770"
             d="m 710.951,122.233 -0.072,39.607 -14.228,0.626 c -7.976,1.202 -12.362,3.793 -17.933,9.51 -5.312,-5.471 -14.333,-7.461 -24.676,-9.51 -0.614,-16.683 -1.418,-25.459 -2.475,-30.972 11.969,-5.664 43.088,-21.701 43.088,-21.701 0.134,8.861 8.585,12.44 16.296,12.44 z"
             id="path74" />
          <path
             fill="#546169"
             d="m 710.951,122.233 -0.072,39.607 14.225,0.626 c 7.977,1.202 12.363,3.793 17.934,9.51 5.312,-5.471 14.006,-7.461 24.348,-9.51 0.855,-17.706 3.174,-26.76 4.23,-32.273 -10.957,-4.922 -44.969,-20.4 -44.969,-20.4 -0.135,8.861 -7.983,12.44 -15.696,12.44 z"
             id="path76" />
        </g>
        <path
           fill="#e5ebec"
           d="m 725.004,166.759 -14.176,16.892 -14.174,-16.892 0.047,-51.44 c 0.033,9.099 28.291,8.744 28.352,0 z"
           id="path80" />
        <g
           id="g90">
          <polygon
             fill="#32383d"
             points="719.791,165.772 712.887,133.402 709.102,133.402 702.158,166.882 710.836,182.295 "
             id="polygon82" />
          <path
             fill="#2e3338"
             d="m 710.889,122.009 c 5.783,0 10.621,0 10.621,0 l -8.623,11.393 h -3.785 l -8.939,-11.393 z"
             id="path84" />
          <path
             fill="#f9f9f9"
             d="m 696.701,114.6 c 3.715,4.882 6.423,7.016 14.166,7.223 -3.746,3.527 -6.988,6.806 -10.469,12.291 -3.916,-8.011 -4.539,-12.894 -3.697,-19.514 z"
             id="path86" />
          <path
             fill="#f9f9f9"
             d="m 725.031,114.6 c -3.715,4.882 -6.424,7.016 -14.164,7.223 3.744,3.527 6.986,6.806 10.467,12.291 3.916,-8.011 4.539,-12.894 3.697,-19.514 z"
             id="path88" />
        </g>
        <g
           id="g100">
          <path
             fill="#464f57"
             d="m 687.955,93.835 c -6.914,3.721 -19.68,16.39 -19.68,16.39 5.182,4.628 10.219,6.875 14.434,14.807 l 13.945,-3.16 c 0.051,-1.077 -0.414,-5.544 0.012,-7.272 l 0.008,-10.516 c -2.646,-2.295 -6.653,-7.319 -8.719,-10.249 z"
             id="path92" />
          <path
             fill="#464f57"
             d="m 682.709,125.032 -12.239,14.93 36.866,47.634 2.098,-7.274 c 0,0 -6.397,-26.273 -9.865,-40.566 -3.529,-14.55 -2.957,-19.354 -2.957,-19.354 z"
             id="path94" />
          <path
             fill="#464f57"
             d="m 733.822,93.835 c 6.914,3.721 19.68,16.39 19.68,16.39 -5.182,4.628 -10.219,6.875 -14.434,14.807 l -13.945,-3.16 c -0.051,-1.077 0.414,-5.544 -0.012,-7.272 l -0.008,-10.516 c 2.647,-2.295 6.653,-7.319 8.719,-10.249 z"
             id="path96" />
          <path
             fill="#464f57"
             d="m 739.068,125.032 12.24,14.93 -51.146,60.581 v -3.43 c 0,0 18.58,-43.064 22.047,-57.357 3.529,-14.55 2.957,-19.354 2.957,-19.354 z"
             id="path98" />
        </g>
        <g
           id="g106">
          <path
             fill="#5a6770"
             d="m 691.555,258.003 -9.08,30.332 -28.789,14.148 1.056,-11.135 c 19.15,-14.324 20.13,-22.98 28.224,-39.783 z"
             id="path102" />
          <path
             fill="#546169"
             d="m 730.695,258.003 9.08,30.332 28.789,14.148 -1.057,-11.135 c -19.15,-14.324 -20.129,-22.98 -28.223,-39.783 z"
             id="path104" />
        </g>
        <g
           id="g120">
          <path
             fill="#464f57"
             d="m 763.219,239.632 -0.982,14.25 c 0,3.646 -25.672,5.475 -51.357,5.475 -25.709,0.006 -51.439,-1.82 -51.439,-5.475 l -0.91,-14.25 c 0,3.367 26.174,5.053 52.35,5.053 26.164,0 52.338,-1.686 52.338,-5.053 z"
             id="path108" />
          <path
             fill="#3e474d"
             d="m 763.219,239.632 -0.982,14.25 c 0,1.479 -4.209,2.656 -10.928,3.535 -9.861,1.295 -25.146,1.939 -40.43,1.939 v -14.672 c 15.172,0 30.354,-0.568 40.43,-1.701 7.295,-0.82 11.91,-1.937 11.91,-3.351 z"
             id="path110" />
          <path
             fill="#464f57"
             d="m 751.309,242.983 4.979,7.344 -4.979,7.09 c -9.861,1.295 -25.146,1.939 -40.43,1.939 v -14.672 c 15.172,0.001 30.353,-0.568 40.43,-1.701 z"
             id="path112" />
          <path
             fill="#32383d"
             d="m 716.553,261.886 h -11.357 c -1.725,0 -3.122,-1.398 -3.122,-3.123 v -14.1 c 0,-1.725 1.397,-3.121 3.122,-3.121 h 11.357 c 1.725,0 3.123,1.396 3.123,3.121 v 14.1 c 0,1.724 -1.399,3.123 -3.123,3.123 z"
             id="path114" />
          <rect
             x="705.53497"
             y="244.071"
             fill="#464f57"
             width="10.678"
             height="15.285"
             id="rect116" />
          <rect
             x="710.875"
             y="244.071"
             fill="#3e474d"
             width="5.3379998"
             height="15.285"
             id="rect118" />
        </g>
        <path
           fill="#4e5a61"
           d="m 652.416,132.312 c -0.545,-0.682 -1.15,-1.936 -3.123,-1.157 -2.23,0.88 -28.066,45.572 -35.125,75.529 -1.566,6.649 -3.294,14.45 -0.652,20.749 10.718,25.554 27.774,48.599 41.842,64.656 8.084,-4.125 17.447,-10.957 19.955,-21.979 -6.604,-11.479 -22.895,-36.252 -29.499,-47.732 -1.485,-2.583 -1.268,-2.769 -0.302,-5.588 3.199,-9.333 5.438,-13.913 10.501,-26.527 -1.005,-24.977 -1.571,-40.575 -3.597,-57.951 z"
           id="path122" />
      </g>
      <g
         id="g136">
        <g
           id="g132">
          <path
             fill="#e6ce9b"
             d="m 781.158,297.286 c 1.701,-1.594 6.141,-2.572 8.262,-1.602 2.121,0.97 3.123,5.674 3.91,7.869 0.787,2.195 -0.348,2.658 -0.504,4.984 -0.229,3.348 -1.412,6.168 -2.359,9.387 -0.312,1.062 -0.744,4.395 -1.48,5.225 -0.734,0.83 -2.135,0.717 -3.051,0.092 -1.018,-0.693 0.029,-6.668 0.031,-9.123 -0.432,7.027 -1.062,7.09 -2.42,7.027 -1.789,-0.082 -1.389,-5.584 -0.994,-7.232 -0.1,0.697 -0.762,1.49 -1.527,1.484 -0.765,-0.006 -1.098,-0.58 -1.387,-1.287 -0.291,-0.709 1.148,-6.035 0.84,-10.557 -0.188,-2.757 -1.338,-4.376 0.679,-6.267 z"
             id="path126" />
          <g
             id="g130">
            <path
               fill="#f9dfa9"
               d="m 799.283,299.63 c -0.439,1.246 -0.705,6.615 -2.713,12.145 -1.076,2.969 -4.525,10.652 -5.764,13.26 -0.73,1.535 -1.943,0.721 -2.652,0.658 -2.797,-0.801 1.799,-9.918 2.775,-16.584 0.455,-3.115 0.049,-4.41 -0.512,-6.684 -0.252,-1.021 -1.145,-4.07 -4.205,-3.598 -1.48,0.23 -2.857,3.795 -1.678,7.188 0.936,2.686 0.281,5.562 -0.646,6.32 -1.893,1.541 -2.945,-4.297 -4.869,-6.719 -1.338,-1.684 -1.555,-4.096 -0.852,-8.129 0.615,-3.533 0.129,-8.158 0.602,-9.988 0.994,-3.777 1.203,-1.002 2.162,-4.895 5.902,-2.189 7.045,-1.691 13.111,0.01 1.916,3.439 3.441,7.168 4.797,11.607 0.17,0.562 0.34,1.043 0.473,1.486 0.401,1.319 0.549,2.294 -0.029,3.923 z"
               id="path128" />
          </g>
        </g>
        <path
           fill="#4e5a61"
           d="m 770.051,130.355 c 0.547,-0.682 1.152,-1.936 3.125,-1.156 0.945,0.373 9.297,8.411 13.846,22.466 4.068,12.577 10.246,40.756 11.199,62.581 0.357,8.164 2.961,47.533 2.961,72.871 -6.783,3.016 -22.195,3.016 -27.988,-1.109 -0.268,-17.041 -1.82,-59.559 -2.213,-62.513 -1.506,-11.363 -4.855,-30.656 -5.064,-36.128 1.003,-24.978 2.11,-39.637 4.134,-57.012 z"
           id="path134" />
      </g>
    </g>
  </g>
</svg>
